<svg width="197" height="197" viewBox="0 0 197 197" fill="none" xmlns="http://www.w3.org/2000/svg">
<g id="circle">
<path id="Ellipse 9" d="M42.4904 135.184C41.0952 136.084 40.687 137.948 41.6442 139.305C48.3337 148.786 57.2938 156.455 67.7214 161.596C79.0479 167.18 91.6783 169.569 104.258 168.507C116.837 167.446 128.89 162.974 139.125 155.571C149.359 148.168 157.389 138.114 162.351 126.486C167.314 114.859 169.023 102.098 167.294 89.5713C165.566 77.0449 160.465 65.2263 152.54 55.3834C144.615 45.5405 134.164 38.0448 122.309 33.7003C111.397 29.7018 99.6748 28.5116 88.2135 30.2158C86.5682 30.4605 85.5004 32.0467 85.8151 33.6799C86.1301 35.3147 87.7106 36.3767 89.3584 36.1387C99.7446 34.6386 110.357 35.7379 120.242 39.36C131.071 43.3285 140.618 50.1757 147.857 59.1669C155.097 68.1581 159.756 78.954 161.335 90.3964C162.914 101.839 161.353 113.496 156.819 124.117C152.286 134.738 144.952 143.923 135.603 150.685C126.254 157.448 115.243 161.533 103.753 162.502C92.2618 163.472 80.7243 161.289 70.3779 156.189C60.9333 151.533 52.8066 144.606 46.713 136.046C45.7479 134.691 43.8888 134.282 42.4904 135.184Z" fill="url(#paint0_linear_2_20267)"/>
<ellipse id="Ellipse 10" cx="98.4221" cy="99.1071" rx="52.6545" ry="52.7445" fill="#B2D6D4"/>
<g id="Ellipse 12" filter="url(#filter0_d_2_20267)">
<ellipse cx="98.401" cy="98.6221" rx="27.6364" ry="27.6836" fill="white"/>
</g>
<path id="Ellipse 11" d="M49.8144 88.5567C48.2386 88.2147 47.2301 86.6575 47.6575 85.1026C50.7986 73.6764 57.7014 63.6115 67.2886 56.5704C77.6612 48.9525 90.4587 45.401 103.266 46.5863C116.073 47.7715 128.005 53.6114 136.808 63.004C145.612 72.3966 150.68 84.6922 151.054 97.5706C151.429 110.449 147.085 123.019 138.842 132.91C130.599 142.8 119.028 149.326 106.311 151.256C93.5946 153.187 80.6124 150.388 69.8144 143.388C59.8341 136.918 52.3578 127.273 48.5578 116.049C48.0407 114.522 48.9568 112.909 50.5098 112.475C52.0648 112.042 53.6682 112.955 54.1966 114.481C57.6071 124.326 64.2077 132.783 72.9884 138.475C82.5883 144.698 94.1302 147.187 105.436 145.471C116.742 143.754 127.03 137.952 134.358 129.159C141.686 120.366 145.548 109.191 145.215 97.7411C144.882 86.2915 140.377 75.3601 132.55 67.0095C124.723 58.659 114.115 53.467 102.729 52.4133C91.3422 51.3595 79.9646 54.517 70.7427 61.2897C62.3077 67.4847 56.2099 76.3124 53.3777 86.3405C52.939 87.8938 51.3918 88.8991 49.8144 88.5567Z" fill="url(#paint1_angular_2_20267)"/>
<ellipse id="Ellipse 214" cx="98.6963" cy="98.918" rx="5.98539" ry="5.99562" fill="#21A099"/>
</g>
<defs>
<filter id="filter0_d_2_20267" x="0.764648" y="0.938538" width="195.272" height="195.367" filterUnits="userSpaceOnUse" color-interpolation-filters="sRGB">
<feFlood flood-opacity="0" result="BackgroundImageFix"/>
<feColorMatrix in="SourceAlpha" type="matrix" values="0 0 0 0 0 0 0 0 0 0 0 0 0 0 0 0 0 0 127 0" result="hardAlpha"/>
<feOffset/>
<feGaussianBlur stdDeviation="35"/>
<feColorMatrix type="matrix" values="0 0 0 0 0.317647 0 0 0 0 0.431373 0 0 0 0 1 0 0 0 0.7 0"/>
<feBlend mode="normal" in2="BackgroundImageFix" result="effect1_dropShadow_2_20267"/>
<feBlend mode="normal" in="SourceGraphic" in2="effect1_dropShadow_2_20267" result="shape"/>
</filter>
<linearGradient id="paint0_linear_2_20267" x1="64.6764" y1="165.548" x2="95.4669" y2="32.6896" gradientUnits="userSpaceOnUse">
<stop stop-color="#21A099"/>
<stop offset="0.48461" stop-color="#B2D6D4"/>
<stop offset="0.660252" stop-color="#B2D6D4"/>
<stop offset="1" stop-color="#B2D6D4"/>
</linearGradient>
<radialGradient id="paint1_angular_2_20267" cx="0" cy="0" r="1" gradientUnits="userSpaceOnUse" gradientTransform="translate(98.4221 99.1071) rotate(103.118) scale(51.9136 51.8342)">
<stop offset="0.173135" stop-color="#F6F8FF" stop-opacity="0"/>
<stop offset="0.254245" stop-color="#4AC8C1"/>
<stop offset="0.696184" stop-color="#B2D6D4"/>
</radialGradient>
</defs>
</svg>
