<svg width="117" height="30" viewBox="0 0 117 30" fill="none" xmlns="http://www.w3.org/2000/svg">
<g id="Logo">
<path d="M38.8815 21.5108L41.6876 19.8752C42.9211 21.6857 44.5246 22.591 46.4982 22.591C47.4644 22.591 48.225 22.4058 48.7801 22.0355C49.3557 21.6446 49.6435 21.1302 49.6435 20.4924C49.6435 19.978 49.4071 19.5254 48.9343 19.1345C48.482 18.7435 47.9989 18.4555 47.4849 18.2703C46.971 18.0646 46.2001 17.7971 45.1722 17.4679C44.9872 17.4062 44.8535 17.365 44.7713 17.3445C44.0312 17.0976 43.4042 16.861 42.8903 16.6346C42.3969 16.3877 41.8726 16.0688 41.3176 15.6779C40.7625 15.2664 40.3411 14.7623 40.0533 14.1657C39.7655 13.5484 39.6216 12.8386 39.6216 12.0362C39.6216 10.4725 40.2794 9.21746 41.5951 8.27103C42.9108 7.32459 44.5452 6.85137 46.4982 6.85137C47.9578 6.85137 49.3352 7.24229 50.6303 8.02413C51.9255 8.78539 52.8917 9.76269 53.529 10.956L50.9387 12.53C49.7258 10.8634 48.2559 10.0302 46.529 10.0302C45.5833 10.0302 44.8535 10.2256 44.3396 10.6165C43.8462 10.9869 43.5995 11.4807 43.5995 12.0979C43.5995 12.6123 43.8154 13.0752 44.2471 13.4867C44.6994 13.8776 45.1619 14.1657 45.6347 14.3508C46.1076 14.536 46.7757 14.7726 47.6391 15.0607C47.8653 15.1224 48.0297 15.1738 48.1325 15.215C51.7918 16.3877 53.6215 18.1572 53.6215 20.5233C53.6215 21.9841 53.0047 23.2288 51.7713 24.2576C50.5584 25.2657 48.8315 25.7698 46.5907 25.7698C44.8638 25.7698 43.322 25.3892 41.9652 24.6279C40.6289 23.8666 39.601 22.8276 38.8815 21.5108Z" fill="#C4C4C4"/>
<path d="M57.0135 25.2143V0H60.899V25.2143H57.0135Z" fill="#C4C4C4"/>
<path d="M68.3615 20.2146C68.3615 20.873 68.6185 21.4285 69.1324 21.8812C69.6669 22.3133 70.3659 22.5293 71.2293 22.5293C72.4628 22.5293 73.5112 22.1178 74.3747 21.2948C75.2587 20.4718 75.7007 19.3916 75.7007 18.0543V16.4186C74.755 16.6449 73.614 16.861 72.2778 17.0667C69.6669 17.4782 68.3615 18.5275 68.3615 20.2146ZM64.4144 20.5541C64.4144 17.2004 66.9019 15.1533 71.8769 14.4126C73.686 14.1451 74.9606 13.8982 75.7007 13.6719V12.7152C75.7007 11.851 75.3923 11.1721 74.7756 10.6783C74.1588 10.1845 73.3365 9.93758 72.3086 9.93758C70.3556 9.93758 68.6699 10.74 67.2514 12.3448L64.8769 10.3079C65.802 9.21746 66.9019 8.3739 68.1765 7.77723C69.4716 7.15999 70.8284 6.85137 72.2469 6.85137C74.8989 6.85137 76.7902 7.49948 77.9209 8.79568C79.0516 10.0713 79.6169 11.8613 79.6169 14.1657V25.2143H75.824V22.9922C75.454 23.7535 74.8064 24.4119 73.8813 24.9674C72.9767 25.5023 71.9077 25.7698 70.6743 25.7698C68.7213 25.7698 67.1897 25.2863 66.0796 24.3193C64.9694 23.3523 64.4144 22.0972 64.4144 20.5541Z" fill="#C4C4C4"/>
<path d="M82.6081 16.326C82.6081 13.4661 83.3688 11.1721 84.89 9.44378C86.4319 7.71551 88.4157 6.85137 90.8416 6.85137C92.6095 6.85137 94.1 7.38632 95.3129 8.4562C96.5258 9.52608 97.2864 10.7503 97.5948 12.1288L94.2644 13.0546C94.0177 12.2728 93.5963 11.6041 93.0001 11.0486C92.4039 10.4725 91.6947 10.1845 90.8724 10.1845C89.5361 10.1845 88.4877 10.7709 87.727 11.9436C86.9869 13.1164 86.6169 14.5772 86.6169 16.326C86.6169 18.26 87.0178 19.762 87.8195 20.8319C88.6213 21.9018 89.6389 22.4367 90.8724 22.4367C91.7769 22.4367 92.5684 22.1281 93.2468 21.5108C93.9458 20.873 94.4289 20.1529 94.6962 19.3505L98.0265 20.3072C97.6359 21.7475 96.7828 23.0231 95.4671 24.1341C94.1514 25.2246 92.6095 25.7698 90.8416 25.7698C88.4157 25.7698 86.4319 24.916 84.89 23.2083C83.3688 21.48 82.6081 19.1859 82.6081 16.326Z" fill="#C4C4C4"/>
<path d="M100.956 25.2143V0H104.841V14.5052L111.163 7.40689H116.066L109.498 14.6595L116.467 25.2143H111.903L106.969 17.4062L104.841 19.7517V25.2143H100.956Z" fill="#C4C4C4"/>
<path fill-rule="evenodd" clip-rule="evenodd" d="M11.4329 0.164675C9.79649 0.165883 8.47212 1.49231 8.47333 3.1268C8.47212 4.76128 9.7977 6.08771 11.4341 6.08892H14.3949V3.128C14.3961 1.49352 13.0705 0.167091 11.4329 0.164675ZM11.4329 8.06528H3.53989C1.90348 8.06648 0.577895 9.39292 0.579105 11.0274C0.576686 12.6619 1.90227 13.9883 3.53868 13.9907H11.4329C13.0693 13.9895 14.3949 12.6631 14.3937 11.0286C14.3949 9.39292 13.0693 8.06648 11.4329 8.06528Z" fill="#C4C4C4"/>
<path fill-rule="evenodd" clip-rule="evenodd" d="M30.182 11.0273C30.1832 9.39285 28.8576 8.06641 27.2212 8.06521C25.5848 8.06641 24.2592 9.39285 24.2604 11.0273V13.9907H27.2212C28.8576 13.9894 30.1832 12.663 30.182 11.0273ZM22.2877 11.0273V3.12673C22.2889 1.49345 20.9646 0.167021 19.3282 0.164605C17.6917 0.165813 16.3662 1.49224 16.3674 3.12673V11.0273C16.3649 12.6618 17.6905 13.9882 19.3269 13.9907C20.9634 13.9894 22.2889 12.663 22.2877 11.0273Z" fill="#C4C4C4"/>
<path fill-rule="evenodd" clip-rule="evenodd" d="M19.3281 29.7918C20.9646 29.7906 22.2901 28.4641 22.2889 26.8296C22.2901 25.1952 20.9646 23.8687 19.3281 23.8675H16.3674V26.8296C16.3662 28.4629 17.6917 29.7893 19.3281 29.7918ZM19.3281 21.89H27.2224C28.8588 21.8887 30.1844 20.5623 30.1832 18.9278C30.1856 17.2933 28.86 15.9669 27.2236 15.9645H19.3294C17.6929 15.9657 16.3674 17.2921 16.3686 18.9266C16.3674 20.5623 17.6917 21.8887 19.3281 21.89Z" fill="#C4C4C4"/>
<path fill-rule="evenodd" clip-rule="evenodd" d="M0.579102 18.9279C0.577893 20.5624 1.90347 21.8888 3.53989 21.89C5.17631 21.8888 6.50189 20.5624 6.50068 18.9279V15.9658H3.53989C1.90347 15.967 0.577893 17.2934 0.579102 18.9279ZM8.47333 18.9279V26.8285C8.47091 28.463 9.79649 29.7894 11.4329 29.7918C13.0693 29.7906 14.3949 28.4642 14.3937 26.8297V18.9303C14.3961 17.2958 13.0705 15.9694 11.4341 15.967C9.79649 15.967 8.47212 17.2934 8.47333 18.9279Z" fill="#C4C4C4"/>
</g>
</svg>
