<svg width="158" height="32" viewBox="0 0 158 32" fill="none" xmlns="http://www.w3.org/2000/svg">
<g id="Logo">
<path d="M45.2388 17.3406C46.0426 16.6153 46.5857 15.5384 46.8898 14.0878C46.9767 13.5823 47.0419 13.0329 47.0419 12.4615C47.0419 11.8241 46.9116 11.1428 46.6509 10.4615C46.325 9.60431 45.8905 9.14278 45.3691 9.03289C44.587 8.87904 43.8267 9.3186 43.1098 10.3955C42.5232 11.2307 42.1539 12.1098 41.9584 13.0109C41.8498 13.5164 41.8063 14.0659 41.8063 14.6153C41.8063 15.2527 41.9367 15.934 42.1974 16.6153C42.5232 17.4724 42.9577 17.934 43.4791 18.0439C44.0222 18.1538 44.6088 17.912 45.2388 17.3406Z" fill="#C4C4C4"/>
<path d="M33.269 14.0878C32.9649 15.5384 32.4218 16.6153 31.618 17.3406C30.988 17.912 30.4014 18.1538 29.8583 18.0439C29.3369 17.934 28.9024 17.4724 28.5766 16.6153C28.3159 15.934 28.1855 15.2527 28.1855 14.6153C28.1855 14.0659 28.229 13.5164 28.3376 13.0109C28.5331 12.1098 28.9024 11.2307 29.489 10.3955C30.2059 9.3186 30.9663 8.87904 31.7483 9.03289C32.2697 9.14278 32.7042 9.60431 33.0301 10.4615C33.2908 11.1428 33.4211 11.8241 33.4211 12.4615C33.4211 13.0329 33.3777 13.5823 33.269 14.0878Z" fill="#C4C4C4"/>
<path fill-rule="evenodd" clip-rule="evenodd" d="M5.20112 0H48.4544C51.1916 0 53.4075 2.24176 53.4075 5.01099V21.7143C53.4075 24.4835 51.1916 26.7253 48.4544 26.7253H32.9431L35.0721 32L25.7089 26.7253H5.22285C2.48558 26.7253 0.26969 24.4835 0.26969 21.7143V5.01099C0.247965 2.26373 2.46385 0 5.20112 0ZM2.92009 4.54934C3.22423 4.13175 3.68045 3.91197 4.28873 3.86802C5.39667 3.7801 6.02668 4.30758 6.17875 5.45044C6.8522 10.0438 7.59083 13.934 8.37291 17.1208L13.1305 7.95593C13.565 7.12076 14.1081 6.6812 14.7599 6.63725C15.7157 6.57131 16.3023 7.1867 16.5413 8.4834C17.0844 11.4065 17.7796 13.89 18.6051 15.9999C19.1699 10.4175 20.1258 6.39549 21.4727 3.91197C21.7986 3.29659 22.2765 2.9889 22.9065 2.94494C23.4062 2.90099 23.8624 3.05483 24.2752 3.3845C24.6879 3.71417 24.9052 4.13175 24.9486 4.63725C24.9703 5.03285 24.9052 5.36253 24.7314 5.6922C23.8841 7.27461 23.1889 9.93396 22.6241 13.6263C22.081 17.2087 21.8855 19.9999 22.0158 21.9999C22.0593 22.5493 21.9724 23.0329 21.7551 23.4504C21.4944 23.934 21.1034 24.1977 20.6037 24.2416C20.0389 24.2856 19.4523 24.0219 18.8875 23.4285C16.8671 21.3405 15.2595 18.2197 14.0864 14.0658C12.6743 16.879 11.6316 18.9889 10.9581 20.3955C9.67637 22.879 8.59016 24.1537 7.67773 24.2197C7.09117 24.2636 6.59151 23.7581 6.15703 22.7032C5.04908 19.8241 3.85424 14.2636 2.5725 6.02187C2.50733 5.45044 2.61595 4.94494 2.92009 4.54934ZM49.6271 7.99992C48.845 6.61531 47.6936 5.78014 46.1512 5.45047C45.7384 5.36256 45.3474 5.3186 44.9781 5.3186C42.8925 5.3186 41.198 6.4175 39.8728 8.6153C38.7432 10.4834 38.1783 12.5494 38.1783 14.8131C38.1783 16.5054 38.5259 17.956 39.2211 19.1648C40.0032 20.5494 41.1546 21.3845 42.697 21.7142C43.1098 21.8021 43.5008 21.8461 43.8701 21.8461C45.9774 21.8461 47.6719 20.7472 48.9754 18.5494C50.105 16.6593 50.6699 14.5933 50.6699 12.3296C50.6699 10.6153 50.3223 9.18674 49.6271 7.99992ZM32.5304 5.45047C34.0511 5.78014 35.2242 6.61531 36.0063 7.99992C36.7015 9.18674 37.0491 10.6153 37.0491 12.3296C37.0491 14.5933 36.4843 16.6593 35.3546 18.5494C34.0511 20.7472 32.3566 21.8461 30.2494 21.8461C29.88 21.8461 29.489 21.8021 29.0762 21.7142C27.5338 21.3845 26.3824 20.5494 25.6003 19.1648C24.9052 17.956 24.5576 16.5054 24.5576 14.8131C24.5576 12.5494 25.1224 10.4834 26.2521 8.6153C27.5773 6.4175 29.2718 5.3186 31.3573 5.3186C31.7266 5.3186 32.1177 5.36256 32.5304 5.45047Z" fill="#C4C4C4"/>
<path d="M56.7313 13.3409C56.7313 11.0991 57.4482 9.25296 58.9038 7.80241C60.3593 6.35186 62.1841 5.62658 64.4 5.64856C65.2473 5.64856 66.0511 5.73648 66.768 5.93428V9.49472C65.9859 9.27494 65.269 9.16505 64.5955 9.16505C63.5528 9.16505 62.7055 9.56065 62.0103 10.3738C61.3369 11.165 60.9893 12.198 60.9893 13.4508C60.9893 14.7914 61.3369 15.8464 62.0321 16.6376C62.7272 17.4068 63.6397 17.8024 64.7911 17.8024C65.3559 17.8024 66.0076 17.6925 66.768 17.4727V21.0332C65.9425 21.2749 65.1821 21.3848 64.5087 21.3848C62.1841 21.3848 60.3158 20.6376 58.882 19.165C57.4482 17.6925 56.7313 15.7365 56.7313 13.3409Z" fill="#C4C4C4"/>
<path fill-rule="evenodd" clip-rule="evenodd" d="M69.288 7.64856C70.4177 6.3079 71.9818 5.62658 73.9805 5.62658C76.1095 5.62658 77.7388 6.3079 78.8902 7.64856C80.0198 9.0112 80.5847 10.9453 80.5847 13.4508C80.5847 15.9563 80.0198 17.9123 78.9119 19.2969C77.804 20.6815 76.2181 21.3848 74.1543 21.3848C72.0253 21.3848 70.396 20.6815 69.288 19.2969C68.1801 17.9123 67.6152 15.9123 67.6152 13.2969C67.6152 10.8793 68.1583 8.98922 69.288 7.64856ZM73.9805 17.9782C74.7191 17.9782 75.3057 17.6705 75.6967 17.0552C76.0877 16.4398 76.305 15.209 76.3267 13.4068C76.3267 10.4837 75.5446 9.03318 74.0239 9.03318C72.5684 9.03318 71.8515 10.4617 71.8515 13.3409C71.8515 15.209 72.0253 16.4398 72.3946 17.0552C72.7639 17.6705 73.2853 17.9782 73.9805 17.9782Z" fill="#C4C4C4"/>
<path d="M90.5344 9.40681L91.3165 6.04417H96.4869L98.4855 21.0112H94.5317L93.4672 10.7255L90.9906 21.0112H88.2968L85.7116 10.7035L84.6906 21.0112H80.9105L82.8006 6.04417H87.8406C88.5575 9.27494 89.1224 12.0442 89.5351 14.3738L89.9696 12.0442C90.1434 11.1431 90.3389 10.2639 90.5344 9.40681Z" fill="#C4C4C4"/>
<path d="M108.631 9.40681L109.413 6.04417H114.562L116.56 21.0112H112.606L111.542 10.7255L109.087 21.0112H106.393L103.808 10.7035L102.787 21.0112H99.0069L100.897 6.04417H105.937C106.654 9.27494 107.219 12.0442 107.632 14.3738L108.066 12.0442C108.24 11.1431 108.435 10.2639 108.631 9.40681Z" fill="#C4C4C4"/>
<path d="M125.25 15.0991H121.709V17.8464H125.815V21.0332H117.712V6.06614H125.793V9.25296H121.709V12.0002H125.25V15.0991Z" fill="#C4C4C4"/>
<path fill-rule="evenodd" clip-rule="evenodd" d="M137.698 10.6156C137.698 11.3409 137.481 12.0442 137.068 12.7255C136.655 13.4068 136.047 13.9123 135.287 14.264L138.48 21.0112H134.266L131.029 14.198H130.963V21.0112H126.966V6.04417H131.615C133.484 6.04417 134.982 6.46175 136.069 7.27493C137.155 8.08812 137.698 9.209 137.698 10.6156ZM130.942 8.92329V12.4837C132.701 12.4618 133.592 11.9343 133.592 10.9013C133.592 10.198 133.397 9.7145 132.984 9.40681C132.571 9.09911 131.898 8.94526 130.942 8.92329Z" fill="#C4C4C4"/>
<path d="M137.872 13.3409C137.872 11.0991 138.589 9.25296 140.044 7.80241C141.5 6.35186 143.346 5.62658 145.541 5.64856C146.388 5.64856 147.192 5.73648 147.908 5.93428V9.49472C147.126 9.27494 146.41 9.16505 145.736 9.16505C144.693 9.16505 143.846 9.56065 143.151 10.3738C142.477 11.165 142.13 12.198 142.13 13.4508C142.13 14.7914 142.477 15.8464 143.173 16.6376C143.868 17.4068 144.78 17.8024 145.932 17.8024C146.496 17.8024 147.148 17.6925 147.908 17.4727V21.0332C147.083 21.2749 146.323 21.3848 145.649 21.3848C143.325 21.3848 141.456 20.6376 140.023 19.165C138.589 17.6925 137.872 15.7365 137.872 13.3409Z" fill="#C4C4C4"/>
<path d="M153.014 15.0771V17.8244H157.141V21.0112H149.038V6.04417H157.12V9.23098H153.014V11.9782H156.555V15.0771H153.014Z" fill="#C4C4C4"/>
</g>
</svg>
