<svg width="350" height="311" viewBox="0 0 350 311" fill="none" xmlns="http://www.w3.org/2000/svg">
<g id="card 3">
<g id="Rectangle 61" filter="url(#filter0_d_2_20256)">
<rect width="249.885" height="210.992" rx="5" transform="matrix(-1 0 0 1 294.885 30)" fill="white"/>
</g>
<mask id="mask0_2_20256" style="mask-type:alpha" maskUnits="userSpaceOnUse" x="45" y="30" width="250" height="211">
<rect id="Rectangle 559" width="249.885" height="210.992" rx="5" transform="matrix(-1 0 0 1 294.885 30)" fill="white"/>
</mask>
<g mask="url(#mask0_2_20256)">
<path id="Ellipse 204" d="M69.0008 140.121C69.0008 195.968 114.274 241.241 170.121 241.241C225.969 241.241 271.242 195.968 271.242 140.121C271.242 84.2732 225.969 38.9999 170.121 38.9999C114.274 38.9999 69.0008 84.2732 69.0008 140.121ZM232.193 140.121C232.193 174.402 204.403 202.192 170.121 202.192C135.84 202.192 108.05 174.402 108.05 140.121C108.05 105.839 135.84 78.049 170.121 78.049C204.403 78.049 232.193 105.839 232.193 140.121Z" fill="#21A099"/>
<path id="Ellipse 205" d="M266.426 109.287C273.935 132.74 272.627 158.128 262.748 180.686C252.869 203.244 235.097 221.422 212.768 231.808L191.711 186.537C203.015 181.279 212.012 172.077 217.013 160.657C222.014 149.237 222.676 136.384 218.875 124.511L266.426 109.287Z" fill="#B2D6D4"/>
</g>
</g>
<defs>
<filter id="filter0_d_2_20256" x="0" y="3.05176e-05" width="349.885" height="310.992" filterUnits="userSpaceOnUse" color-interpolation-filters="sRGB">
<feFlood flood-opacity="0" result="BackgroundImageFix"/>
<feColorMatrix in="SourceAlpha" type="matrix" values="0 0 0 0 0 0 0 0 0 0 0 0 0 0 0 0 0 0 127 0" result="hardAlpha"/>
<feOffset dx="5" dy="20"/>
<feGaussianBlur stdDeviation="25"/>
<feColorMatrix type="matrix" values="0 0 0 0 0.667911 0 0 0 0 0.727285 0 0 0 0 0.983333 0 0 0 0.3 0"/>
<feBlend mode="normal" in2="BackgroundImageFix" result="effect1_dropShadow_2_20256"/>
<feBlend mode="normal" in="SourceGraphic" in2="effect1_dropShadow_2_20256" result="shape"/>
</filter>
</defs>
</svg>
