<svg width="150" height="39" viewBox="0 0 150 39" fill="none" xmlns="http://www.w3.org/2000/svg">
<g id="Group 262">
<g id="Group 31">
<rect id="Rectangle 50" opacity="0.3" width="3.78182" height="5.24531" rx="1.89091" transform="matrix(-1 0 0 1 149.357 16.8126)" fill="#21A099"/>
<rect id="Rectangle 44" opacity="0.4" width="3.78182" height="13.9875" rx="1.89091" transform="matrix(-1 0 0 1 139.467 12.4415)" fill="#21A099"/>
<rect id="Rectangle 45" opacity="0.5" width="3.78182" height="23.3125" rx="1.89091" transform="matrix(-1 0 0 1 129.575 7.77908)" fill="#21A099"/>
<rect id="Rectangle 46" opacity="0.6" width="3.78182" height="37.3" rx="1.89091" transform="matrix(-1 0 0 1 119.685 0.785278)" fill="#21A099"/>
<rect id="Rectangle 47" opacity="0.7" width="3.78182" height="18.9414" rx="1.89091" transform="matrix(-1 0 0 1 109.794 9.81888)" fill="#21A099"/>
<rect id="Rectangle 48" opacity="0.8" width="3.78182" height="9.90781" rx="1.89091" transform="matrix(-1 0 0 1 99.9023 14.4814)" fill="#21A099"/>
<rect id="Rectangle 49" width="3.78182" height="28.5578" rx="1.89091" transform="matrix(-1 0 0 1 90.0117 5.1564)" fill="#21A099"/>
</g>
<g id="Group 32">
<rect id="Rectangle 51" opacity="0.8" x="0.87793" y="10.7837" width="3.99026" height="16.9876" rx="1.99513" fill="#21A099"/>
<rect id="Rectangle 52" opacity="0.5" x="10.8535" y="15.78" width="3.99026" height="6.99489" rx="1.99513" fill="#21A099"/>
<rect id="Rectangle 53" x="20.6602" y="0.785278" width="3.78182" height="37.3" rx="1.89091" fill="#21A099"/>
<rect id="Rectangle 54" opacity="0.8" x="30.5508" y="9.81891" width="3.78182" height="19.2328" rx="1.89091" fill="#21A099"/>
<rect id="Rectangle 55" opacity="0.7" x="40.4414" y="14.7728" width="3.78182" height="9.325" rx="1.89091" fill="#21A099"/>
<rect id="Rectangle 56" x="50.332" y="5.1564" width="3.78182" height="28.5578" rx="1.89091" fill="#21A099"/>
<rect id="Rectangle 57" opacity="0.6" x="60.2236" y="16.2298" width="3.78182" height="6.41094" rx="1.89091" fill="#21A099"/>
</g>
</g>
</svg>
